<mxfile host="65bd71144e">
    <diagram id="FtEbee-XCXTfJkGimnTI" name="Page-1">
        <mxGraphModel dx="3623" dy="2341" grid="1" gridSize="10" guides="1" tooltips="1" connect="1" arrows="1" fold="1" page="1" pageScale="1" pageWidth="850" pageHeight="1100" math="0" shadow="0">
            <root>
                <mxCell id="0"/>
                <mxCell id="1" parent="0"/>
                <mxCell id="42" value="" style="ellipse;whiteSpace=wrap;html=1;fontSize=22;shadow=0;" parent="1" vertex="1">
                    <mxGeometry x="1470" y="30" width="1020" height="440" as="geometry"/>
                </mxCell>
                <mxCell id="13" value="" style="ellipse;whiteSpace=wrap;html=1;fontSize=22;shadow=0;" parent="1" vertex="1">
                    <mxGeometry x="340" y="-30" width="1065" height="510" as="geometry"/>
                </mxCell>
                <mxCell id="16" value="" style="ellipse;whiteSpace=wrap;html=1;fontSize=22;shadow=0;" parent="1" vertex="1">
                    <mxGeometry x="300" y="480" width="360" height="250" as="geometry"/>
                </mxCell>
                <mxCell id="15" value="" style="ellipse;whiteSpace=wrap;html=1;fontSize=22;shadow=0;" parent="1" vertex="1">
                    <mxGeometry x="710" y="505" width="910" height="430" as="geometry"/>
                </mxCell>
                <mxCell id="14" value="" style="ellipse;whiteSpace=wrap;html=1;fontSize=22;shadow=0;" parent="1" vertex="1">
                    <mxGeometry x="65" y="295" width="330" height="210" as="geometry"/>
                </mxCell>
                <mxCell id="3" value="Dotted lines indicate Routes&lt;br&gt;Solid Lines indicate component nest&lt;br&gt;Elispse groupings are all components on the same route" style="text;html=1;align=center;verticalAlign=middle;resizable=0;points=[];autosize=1;strokeColor=none;fillColor=none;fontSize=22;" parent="1" vertex="1">
                    <mxGeometry x="1120" y="-110" width="570" height="90" as="geometry"/>
                </mxCell>
                <mxCell id="8" value="Home Page" style="whiteSpace=wrap;html=1;fontSize=22;" parent="1" vertex="1">
                    <mxGeometry x="780" y="20" width="120" height="60" as="geometry"/>
                </mxCell>
                <mxCell id="9" value="About Page" style="whiteSpace=wrap;html=1;fontSize=22;" parent="1" vertex="1">
                    <mxGeometry x="160" y="355" width="130" height="60" as="geometry"/>
                </mxCell>
                <mxCell id="10" value="All Bites Page" style="whiteSpace=wrap;html=1;fontSize=22;" parent="1" vertex="1">
                    <mxGeometry x="1070" y="560" width="120" height="60" as="geometry"/>
                </mxCell>
                <mxCell id="12" value="Add Bites Page" style="whiteSpace=wrap;html=1;fontSize=22;" parent="1" vertex="1">
                    <mxGeometry x="430" y="510" width="120" height="60" as="geometry"/>
                </mxCell>
                <mxCell id="18" value="" style="endArrow=none;dashed=1;html=1;fontSize=22;entryX=0.5;entryY=1;entryDx=0;entryDy=0;exitX=0.583;exitY=-0.067;exitDx=0;exitDy=0;exitPerimeter=0;" parent="1" source="12" target="8" edge="1">
                    <mxGeometry width="50" height="50" relative="1" as="geometry">
                        <mxPoint x="770" y="530" as="sourcePoint"/>
                        <mxPoint x="630" y="420" as="targetPoint"/>
                        <Array as="points">
                            <mxPoint x="690" y="330"/>
                        </Array>
                    </mxGeometry>
                </mxCell>
                <mxCell id="19" value="" style="endArrow=none;dashed=1;html=1;dashPattern=1 3;strokeWidth=2;fontSize=22;exitX=0.567;exitY=0;exitDx=0;exitDy=0;exitPerimeter=0;entryX=0.092;entryY=1.033;entryDx=0;entryDy=0;entryPerimeter=0;" parent="1" source="9" target="8" edge="1">
                    <mxGeometry width="50" height="50" relative="1" as="geometry">
                        <mxPoint x="770" y="530" as="sourcePoint"/>
                        <mxPoint x="820" y="480" as="targetPoint"/>
                        <Array as="points">
                            <mxPoint x="410" y="320"/>
                            <mxPoint x="650" y="250"/>
                        </Array>
                    </mxGeometry>
                </mxCell>
                <mxCell id="22" value="" style="endArrow=none;dashed=1;html=1;fontSize=22;entryX=0.817;entryY=1.033;entryDx=0;entryDy=0;entryPerimeter=0;exitX=0.125;exitY=-0.033;exitDx=0;exitDy=0;exitPerimeter=0;" parent="1" source="10" target="8" edge="1">
                    <mxGeometry width="50" height="50" relative="1" as="geometry">
                        <mxPoint x="770" y="530" as="sourcePoint"/>
                        <mxPoint x="820" y="480" as="targetPoint"/>
                        <Array as="points">
                            <mxPoint x="940" y="470"/>
                            <mxPoint x="780" y="330"/>
                        </Array>
                    </mxGeometry>
                </mxCell>
                <mxCell id="24" value="NavBar" style="whiteSpace=wrap;html=1;shadow=0;fontSize=22;" parent="1" vertex="1">
                    <mxGeometry x="420" y="175" width="120" height="60" as="geometry"/>
                </mxCell>
                <mxCell id="25" value="RecentBitesList" style="whiteSpace=wrap;html=1;shadow=0;fontSize=22;" parent="1" vertex="1">
                    <mxGeometry x="1095" y="115" width="180" height="60" as="geometry"/>
                </mxCell>
                <mxCell id="26" value="Bite" style="whiteSpace=wrap;html=1;shadow=0;fontSize=22;" parent="1" vertex="1">
                    <mxGeometry x="1000" y="200" width="120" height="60" as="geometry"/>
                </mxCell>
                <mxCell id="27" value="Header" style="whiteSpace=wrap;html=1;shadow=0;fontSize=22;" parent="1" vertex="1">
                    <mxGeometry x="590" y="100" width="120" height="60" as="geometry"/>
                </mxCell>
                <mxCell id="31" value="" style="endArrow=classic;html=1;fontSize=22;entryX=0.75;entryY=0;entryDx=0;entryDy=0;" parent="1" source="8" target="27" edge="1">
                    <mxGeometry width="50" height="50" relative="1" as="geometry">
                        <mxPoint x="770" y="240" as="sourcePoint"/>
                        <mxPoint x="820" y="180" as="targetPoint"/>
                        <Array as="points">
                            <mxPoint x="720" y="90"/>
                        </Array>
                    </mxGeometry>
                </mxCell>
                <mxCell id="32" value="" style="endArrow=classic;html=1;fontSize=22;exitX=-0.025;exitY=0.617;exitDx=0;exitDy=0;exitPerimeter=0;entryX=1;entryY=0;entryDx=0;entryDy=0;" parent="1" source="27" target="24" edge="1">
                    <mxGeometry width="50" height="50" relative="1" as="geometry">
                        <mxPoint x="550" y="140" as="sourcePoint"/>
                        <mxPoint x="540" y="200" as="targetPoint"/>
                    </mxGeometry>
                </mxCell>
                <mxCell id="33" value="" style="endArrow=classic;html=1;fontSize=22;exitX=1;exitY=0.5;exitDx=0;exitDy=0;entryX=0;entryY=0.25;entryDx=0;entryDy=0;" parent="1" source="8" target="25" edge="1">
                    <mxGeometry width="50" height="50" relative="1" as="geometry">
                        <mxPoint x="890" y="110" as="sourcePoint"/>
                        <mxPoint x="970" y="160" as="targetPoint"/>
                        <Array as="points"/>
                    </mxGeometry>
                </mxCell>
                <mxCell id="34" value="" style="endArrow=classic;html=1;fontSize=22;exitX=1;exitY=1;exitDx=0;exitDy=0;entryX=0.5;entryY=0;entryDx=0;entryDy=0;" parent="1" source="8" target="26" edge="1">
                    <mxGeometry width="50" height="50" relative="1" as="geometry">
                        <mxPoint x="770" y="230" as="sourcePoint"/>
                        <mxPoint x="970" y="250" as="targetPoint"/>
                    </mxGeometry>
                </mxCell>
                <mxCell id="35" value="MainContent" style="whiteSpace=wrap;html=1;shadow=0;fontSize=22;" parent="1" vertex="1">
                    <mxGeometry x="850" y="235" width="140" height="75" as="geometry"/>
                </mxCell>
                <mxCell id="38" value="" style="endArrow=classic;html=1;fontSize=22;exitX=0.908;exitY=1.017;exitDx=0;exitDy=0;exitPerimeter=0;entryX=0.5;entryY=0;entryDx=0;entryDy=0;" parent="1" source="8" target="35" edge="1">
                    <mxGeometry width="50" height="50" relative="1" as="geometry">
                        <mxPoint x="770" y="230" as="sourcePoint"/>
                        <mxPoint x="820" y="180" as="targetPoint"/>
                    </mxGeometry>
                </mxCell>
                <mxCell id="39" value="&lt;font style=&quot;font-size: 22px;&quot;&gt;AddBiteForm&lt;/font&gt;" style="whiteSpace=wrap;html=1;" parent="1" vertex="1">
                    <mxGeometry x="390" y="620" width="150" height="60" as="geometry"/>
                </mxCell>
                <mxCell id="40" value="" style="endArrow=classic;html=1;fontSize=17;exitX=0.5;exitY=1;exitDx=0;exitDy=0;entryX=0.567;entryY=-0.083;entryDx=0;entryDy=0;entryPerimeter=0;" parent="1" source="12" target="39" edge="1">
                    <mxGeometry width="50" height="50" relative="1" as="geometry">
                        <mxPoint x="810" y="600" as="sourcePoint"/>
                        <mxPoint x="1350" y="420" as="targetPoint"/>
                        <Array as="points"/>
                    </mxGeometry>
                </mxCell>
                <mxCell id="41" value="Favorite Bites Page" style="whiteSpace=wrap;html=1;fontSize=22;" parent="1" vertex="1">
                    <mxGeometry x="1900" y="70" width="120" height="60" as="geometry"/>
                </mxCell>
                <mxCell id="44" value="" style="endArrow=none;dashed=1;html=1;dashPattern=1 3;strokeWidth=2;fontSize=22;entryX=0;entryY=0.25;entryDx=0;entryDy=0;exitX=1;exitY=0.25;exitDx=0;exitDy=0;" parent="1" source="8" target="41" edge="1">
                    <mxGeometry width="50" height="50" relative="1" as="geometry">
                        <mxPoint x="1290" y="380" as="sourcePoint"/>
                        <mxPoint x="1340" y="330" as="targetPoint"/>
                    </mxGeometry>
                </mxCell>
                <mxCell id="45" value="Search" style="whiteSpace=wrap;html=1;fontSize=22;" parent="1" vertex="1">
                    <mxGeometry x="750" y="700" width="120" height="60" as="geometry"/>
                </mxCell>
                <mxCell id="46" value="CategoryFilter" style="whiteSpace=wrap;html=1;fontSize=22;" parent="1" vertex="1">
                    <mxGeometry x="890" y="700" width="160" height="60" as="geometry"/>
                </mxCell>
                <mxCell id="47" value="SortFilter" style="whiteSpace=wrap;html=1;fontSize=22;" parent="1" vertex="1">
                    <mxGeometry x="1070" y="700" width="160" height="60" as="geometry"/>
                </mxCell>
                <mxCell id="48" value="AverageRating" style="whiteSpace=wrap;html=1;fontSize=22;" parent="1" vertex="1">
                    <mxGeometry x="1250" y="700" width="160" height="60" as="geometry"/>
                </mxCell>
                <mxCell id="49" value="Favortie" style="whiteSpace=wrap;html=1;fontSize=22;" parent="1" vertex="1">
                    <mxGeometry x="1430" y="700" width="160" height="60" as="geometry"/>
                </mxCell>
                <mxCell id="50" value="" style="ellipse;whiteSpace=wrap;html=1;fontSize=22;shadow=0;" parent="1" vertex="1">
                    <mxGeometry x="1670" y="655" width="400" height="280" as="geometry"/>
                </mxCell>
                <mxCell id="51" value="ShowcaseBite" style="whiteSpace=wrap;html=1;fontSize=22;" parent="1" vertex="1">
                    <mxGeometry x="1780" y="700" width="170" height="70" as="geometry"/>
                </mxCell>
                <mxCell id="52" value="" style="endArrow=none;dashed=1;html=1;dashPattern=1 3;strokeWidth=2;fontSize=22;entryX=1;entryY=0.25;entryDx=0;entryDy=0;exitX=0;exitY=0;exitDx=0;exitDy=0;" parent="1" source="51" target="10" edge="1">
                    <mxGeometry width="50" height="50" relative="1" as="geometry">
                        <mxPoint x="1200" y="860" as="sourcePoint"/>
                        <mxPoint x="1250" y="810" as="targetPoint"/>
                        <Array as="points">
                            <mxPoint x="1500" y="630"/>
                        </Array>
                    </mxGeometry>
                </mxCell>
                <mxCell id="53" value="" style="endArrow=none;dashed=1;html=1;dashPattern=1 3;strokeWidth=2;fontSize=22;exitX=0.5;exitY=0;exitDx=0;exitDy=0;" parent="1" source="51" target="41" edge="1">
                    <mxGeometry width="50" height="50" relative="1" as="geometry">
                        <mxPoint x="1200" y="500" as="sourcePoint"/>
                        <mxPoint x="1250" y="450" as="targetPoint"/>
                        <Array as="points">
                            <mxPoint x="1800" y="380"/>
                        </Array>
                    </mxGeometry>
                </mxCell>
                <mxCell id="54" value="MealFeedback" style="whiteSpace=wrap;html=1;fontSize=22;" parent="1" vertex="1">
                    <mxGeometry x="1785" y="810" width="170" height="70" as="geometry"/>
                </mxCell>
                <mxCell id="55" value="" style="endArrow=classic;html=1;fontSize=22;entryX=0.5;entryY=0;entryDx=0;entryDy=0;exitX=0.5;exitY=1;exitDx=0;exitDy=0;" parent="1" source="51" target="54" edge="1">
                    <mxGeometry width="50" height="50" relative="1" as="geometry">
                        <mxPoint x="1200" y="500" as="sourcePoint"/>
                        <mxPoint x="1250" y="450" as="targetPoint"/>
                    </mxGeometry>
                </mxCell>
                <mxCell id="56" value="Search" style="whiteSpace=wrap;html=1;fontSize=22;" parent="1" vertex="1">
                    <mxGeometry x="1510" y="210" width="120" height="60" as="geometry"/>
                </mxCell>
                <mxCell id="57" value="CategoryFilter" style="whiteSpace=wrap;html=1;fontSize=22;" parent="1" vertex="1">
                    <mxGeometry x="1670" y="210" width="160" height="60" as="geometry"/>
                </mxCell>
                <mxCell id="58" value="SortFilter" style="whiteSpace=wrap;html=1;fontSize=22;" parent="1" vertex="1">
                    <mxGeometry x="1910" y="220" width="160" height="60" as="geometry"/>
                </mxCell>
                <mxCell id="59" value="AverageRating" style="whiteSpace=wrap;html=1;fontSize=22;" parent="1" vertex="1">
                    <mxGeometry x="2090" y="220" width="160" height="60" as="geometry"/>
                </mxCell>
                <mxCell id="60" value="Favortie" style="whiteSpace=wrap;html=1;fontSize=22;" parent="1" vertex="1">
                    <mxGeometry x="2270" y="220" width="160" height="60" as="geometry"/>
                </mxCell>
                <mxCell id="61" value="" style="endArrow=classic;html=1;entryX=0.5;entryY=0;entryDx=0;entryDy=0;exitX=1;exitY=0.75;exitDx=0;exitDy=0;" edge="1" parent="1" source="10" target="49">
                    <mxGeometry width="50" height="50" relative="1" as="geometry">
                        <mxPoint x="1600" y="490" as="sourcePoint"/>
                        <mxPoint x="1650" y="440" as="targetPoint"/>
                    </mxGeometry>
                </mxCell>
                <mxCell id="62" value="" style="endArrow=classic;html=1;entryX=0.5;entryY=0;entryDx=0;entryDy=0;exitX=1;exitY=1;exitDx=0;exitDy=0;" edge="1" parent="1" source="10" target="48">
                    <mxGeometry width="50" height="50" relative="1" as="geometry">
                        <mxPoint x="1200" y="615" as="sourcePoint"/>
                        <mxPoint x="1520" y="710" as="targetPoint"/>
                    </mxGeometry>
                </mxCell>
                <mxCell id="63" value="" style="endArrow=classic;html=1;exitX=0.75;exitY=1;exitDx=0;exitDy=0;" edge="1" parent="1" source="10" target="47">
                    <mxGeometry width="50" height="50" relative="1" as="geometry">
                        <mxPoint x="1200" y="630" as="sourcePoint"/>
                        <mxPoint x="1340" y="710" as="targetPoint"/>
                    </mxGeometry>
                </mxCell>
                <mxCell id="64" value="" style="endArrow=classic;html=1;exitX=0.315;exitY=0.986;exitDx=0;exitDy=0;entryX=0.5;entryY=0;entryDx=0;entryDy=0;exitPerimeter=0;" edge="1" parent="1" source="10" target="46">
                    <mxGeometry width="50" height="50" relative="1" as="geometry">
                        <mxPoint x="1170" y="630" as="sourcePoint"/>
                        <mxPoint x="1162.727272727273" y="710" as="targetPoint"/>
                    </mxGeometry>
                </mxCell>
                <mxCell id="65" value="" style="endArrow=classic;html=1;exitX=0;exitY=0.75;exitDx=0;exitDy=0;entryX=0.589;entryY=0.006;entryDx=0;entryDy=0;entryPerimeter=0;" edge="1" parent="1" source="10" target="45">
                    <mxGeometry width="50" height="50" relative="1" as="geometry">
                        <mxPoint x="1117.8000000000002" y="629.1599999999999" as="sourcePoint"/>
                        <mxPoint x="980" y="710" as="targetPoint"/>
                    </mxGeometry>
                </mxCell>
                <mxCell id="66" value="" style="endArrow=classic;html=1;exitX=0.604;exitY=0.996;exitDx=0;exitDy=0;entryX=0.5;entryY=0;entryDx=0;entryDy=0;exitPerimeter=0;" edge="1" parent="1" source="41" target="58">
                    <mxGeometry width="50" height="50" relative="1" as="geometry">
                        <mxPoint x="1080" y="615" as="sourcePoint"/>
                        <mxPoint x="830.6800000000003" y="710.3600000000001" as="targetPoint"/>
                    </mxGeometry>
                </mxCell>
                <mxCell id="67" value="" style="endArrow=classic;html=1;exitX=0.927;exitY=1.016;exitDx=0;exitDy=0;entryX=0.413;entryY=0.006;entryDx=0;entryDy=0;exitPerimeter=0;entryPerimeter=0;" edge="1" parent="1" source="41" target="59">
                    <mxGeometry width="50" height="50" relative="1" as="geometry">
                        <mxPoint x="1982.4799999999996" y="139.76000000000022" as="sourcePoint"/>
                        <mxPoint x="2000" y="230" as="targetPoint"/>
                    </mxGeometry>
                </mxCell>
                <mxCell id="68" value="" style="endArrow=classic;html=1;exitX=1;exitY=0.5;exitDx=0;exitDy=0;entryX=0.435;entryY=0.006;entryDx=0;entryDy=0;entryPerimeter=0;" edge="1" parent="1" source="41" target="60">
                    <mxGeometry width="50" height="50" relative="1" as="geometry">
                        <mxPoint x="2021.2399999999998" y="140.96000000000004" as="sourcePoint"/>
                        <mxPoint x="2166.079999999999" y="230.36000000000013" as="targetPoint"/>
                    </mxGeometry>
                </mxCell>
                <mxCell id="69" value="" style="endArrow=classic;html=1;exitX=0;exitY=1;exitDx=0;exitDy=0;" edge="1" parent="1" source="41" target="57">
                    <mxGeometry width="50" height="50" relative="1" as="geometry">
                        <mxPoint x="2030" y="110" as="sourcePoint"/>
                        <mxPoint x="2349.5999999999995" y="230.36000000000013" as="targetPoint"/>
                    </mxGeometry>
                </mxCell>
                <mxCell id="71" value="" style="endArrow=classic;html=1;exitX=0;exitY=0.75;exitDx=0;exitDy=0;entryX=0.667;entryY=0;entryDx=0;entryDy=0;entryPerimeter=0;" edge="1" parent="1" source="41" target="56">
                    <mxGeometry width="50" height="50" relative="1" as="geometry">
                        <mxPoint x="1910" y="140" as="sourcePoint"/>
                        <mxPoint x="1800.909090909091" y="220" as="targetPoint"/>
                    </mxGeometry>
                </mxCell>
            </root>
        </mxGraphModel>
    </diagram>
</mxfile>